<svg width="105" height="28" viewBox="0 0 105 28" fill="none" xmlns="http://www.w3.org/2000/svg">
<path d="M0.875977 0.817871V26.9997H4.6345V8.04088H4.8774L12.599 26.9613H15.7183L23.4399 8.05367H23.6828V26.9997H27.4413V0.817871H22.6473L14.3121 21.1701H14.0052L5.67001 0.817871H0.875977Z" fill="white"/>
<path d="M42.0088 27.396C46.2915 27.396 49.3213 25.2866 50.1906 22.0906L46.5727 21.4386C45.8824 23.2923 44.2204 24.2383 42.0471 24.2383C38.7744 24.2383 36.5756 22.1162 36.4733 18.3321H50.4335V16.977C50.4335 9.88179 46.1892 7.10765 41.7403 7.10765C36.2687 7.10765 32.6636 11.2753 32.6636 17.3093C32.6636 23.4074 36.2176 27.396 42.0088 27.396ZM36.4861 15.4684C36.6395 12.6815 38.6594 10.2653 41.7659 10.2653C44.7318 10.2653 46.675 12.4642 46.6878 15.4684H36.4861Z" fill="white"/>
<path d="M69.3891 12.1574C68.5965 9.10196 66.2059 7.10765 61.9616 7.10765C57.5255 7.10765 54.3806 9.44713 54.3806 12.9244C54.3806 15.7113 56.0681 17.565 59.7499 18.3832L63.0738 19.1119C64.9658 19.5338 65.8479 20.3775 65.8479 21.6048C65.8479 23.1261 64.2243 24.315 61.7187 24.315C59.4303 24.315 57.9601 23.3307 57.4999 21.4003L53.8053 21.9628C54.4445 25.44 57.3337 27.396 61.7442 27.396C66.4871 27.396 69.7726 24.8775 69.7726 21.3236C69.7726 18.5494 68.0084 16.8363 64.4033 16.0054L61.284 15.2895C59.1235 14.7781 58.1903 14.0494 58.203 12.7199C58.1903 11.2113 59.8266 10.1375 61.9999 10.1375C64.3778 10.1375 65.4772 11.4542 65.9246 12.771L69.3891 12.1574Z" fill="white"/>
<path d="M83.1416 7.36333H79.1146V2.65878H75.2922V7.36333H72.4157V10.4315H75.2922V22.0267C75.2794 25.5934 78.0024 27.3193 81.0194 27.2554C82.2339 27.2426 83.0521 27.0125 83.4996 26.8463L82.8092 23.6886C82.5535 23.7397 82.0805 23.8548 81.4669 23.8548C80.2268 23.8548 79.1146 23.4457 79.1146 21.2341V10.4315H83.1416V7.36333Z" fill="white"/>
<path d="M95.4303 27.396C100.966 27.396 104.584 23.3434 104.584 17.271C104.584 11.1602 100.966 7.10765 95.4303 7.10765C89.8948 7.10765 86.2769 11.1602 86.2769 17.271C86.2769 23.3434 89.8948 27.396 95.4303 27.396ZM95.4431 24.1872C91.8252 24.1872 90.1377 21.0295 90.1377 17.2582C90.1377 13.4997 91.8252 10.3037 95.4431 10.3037C99.0354 10.3037 100.723 13.4997 100.723 17.2582C100.723 21.0295 99.0354 24.1872 95.4431 24.1872Z" fill="white"/>
</svg>
